<?xml version="1.0" encoding="UTF-8"?>
<svg version="1.1" xmlns="http://www.w3.org/2000/svg" width="150" height="144">
<path d="M0 0 C49.5 0 99 0 150 0 C150 47.52 150 95.04 150 144 C100.5 144 51 144 0 144 C0 96.48 0 48.96 0 0 Z " fill="#FEFEFE" transform="translate(0,0)"/>
<path d="M0 0 C4.29 0 8.58 0 13 0 C13.66 1.65 14.32 3.3 15 5 C15.35707031 4.18144531 15.71414062 3.36289062 16.08203125 2.51953125 C18 0 18 0 21.13671875 -0.48828125 C22.89435547 -0.40126953 22.89435547 -0.40126953 24.6875 -0.3125 C25.86699219 -0.26738281 27.04648438 -0.22226562 28.26171875 -0.17578125 C29.61716797 -0.08876953 29.61716797 -0.08876953 31 0 C32.49821059 3.37097383 33 5.20442119 33 9 C33.66 9 34.32 9 35 9 C35.185625 7.6078125 35.185625 7.6078125 35.375 6.1875 C36 3 36 3 38 0 C41.96 0 45.92 0 50 0 C50 16.17 50 32.34 50 49 C45.71 49 41.42 49 37 49 C36.28385417 46.42838542 35.56770833 43.85677083 34.8515625 41.28515625 C34.23339896 38.83254913 34.23339896 38.83254913 32 38 C31.80083984 38.93972656 31.80083984 38.93972656 31.59765625 39.8984375 C31.42105469 40.71570313 31.24445313 41.53296875 31.0625 42.375 C30.80146484 43.59316406 30.80146484 43.59316406 30.53515625 44.8359375 C30 47 30 47 29 49 C26.36 49 23.72 49 21 49 C20.73445313 48.28972656 20.46890625 47.57945313 20.1953125 46.84765625 C19.84210938 45.92855469 19.48890625 45.00945312 19.125 44.0625 C18.77695313 43.14597656 18.42890625 42.22945312 18.0703125 41.28515625 C17.2180914 38.85058944 17.2180914 38.85058944 15 38 C14.79503906 38.71027344 14.59007813 39.42054687 14.37890625 40.15234375 C14.10949219 41.07144531 13.84007812 41.99054688 13.5625 42.9375 C13.29566406 43.85402344 13.02882813 44.77054688 12.75390625 45.71484375 C12 48 12 48 11 49 C7.37 49 3.74 49 0 49 C0 32.83 0 16.66 0 0 Z " fill="#0FBEDC" transform="translate(50,47)"/>
<path d="M0 0 C4.29 0 8.58 0 13 0 C15.24209495 4.56150353 16.45878153 7.23496552 15.15625 12.24609375 C14.28143842 14.445838 13.3626648 16.62876449 12.39453125 18.7890625 C10.93329982 22.15357856 9.99023203 25.46928506 9 29 C7.88819697 32.31203575 6.69912099 35.59372332 5.5 38.875 C5.19191406 39.74125 4.88382813 40.6075 4.56640625 41.5 C4.26605469 42.32242188 3.96570312 43.14484375 3.65625 43.9921875 C3.38619141 44.73839355 3.11613281 45.48459961 2.83789062 46.25341797 C2 48 2 48 0 49 C0 32.83 0 16.66 0 0 Z " fill="#0CBBD9" transform="translate(50,47)"/>
<path d="M0 0 C0.33 0 0.66 0 1 0 C1 16.17 1 32.34 1 49 C6.445 48.505 6.445 48.505 12 48 C13.32 44.7 14.64 41.4 16 38 C17.485 38.495 17.485 38.495 19 39 C19.94921875 41.06640625 19.94921875 41.06640625 20.6875 43.5625 C20.93886719 44.38878906 21.19023438 45.21507812 21.44921875 46.06640625 C21.63097656 46.70449219 21.81273438 47.34257813 22 48 C24.64 48.33 27.28 48.66 30 49 C30.99 45.37 31.98 41.74 33 38 C33.99 38.33 34.98 38.66 36 39 C36.66 42.3 37.32 45.6 38 49 C37.34 49 36.68 49 36 49 C36 47.68 36 46.36 36 45 C34.02 45.495 34.02 45.495 32 46 C32.33 46.99 32.66 47.98 33 49 C29.36178302 51.32845886 26.23971058 51.23553948 22 51 C19.48916886 49.74458443 19.12874554 48.49936512 18 46 C17.38125 46.61875 17.38125 46.61875 16.75 47.25 C15.88375 48.11625 15.88375 48.11625 15 49 C14.071875 50.0209375 14.071875 50.0209375 13.125 51.0625 C10.81996374 53.16415071 8.98550132 54.13577593 6 55 C5.34 54.67 4.68 54.34 4 54 C4 53.34 4 52.68 4 52 C3.34 52 2.68 52 2 52 C2 51.34 2 50.68 2 50 C1.34 50 0.68 50 0 50 C0 33.5 0 17 0 0 Z " fill="#CDD5D6" transform="translate(49,47)"/>
<path d="M0 0 C0.33 0 0.66 0 1 0 C1 4.29 1 8.58 1 13 C1.99 13.33 2.98 13.66 4 14 C4.19853527 18.73201173 4.34326787 23.46157717 4.43945312 28.19677734 C4.47956057 29.80527995 4.53406573 31.41349308 4.60351562 33.02099609 C5.16566039 46.37193437 5.16566039 46.37193437 2.2890625 50.38964844 C-0.68745728 52.66973891 -3.45728653 53.81909551 -7 55 C-7.66 54.67 -8.32 54.34 -9 54 C-9 53.34 -9 52.68 -9 52 C-9.99 52 -10.98 52 -12 52 C-12.495 50.515 -12.495 50.515 -13 49 C-8.71 49 -4.42 49 0 49 C0 32.83 0 16.66 0 0 Z " fill="#EBE9E8" transform="translate(100,47)"/>
<path d="M0 0 C6.27 0 12.54 0 19 0 C18.01 0.495 18.01 0.495 17 1 C16.34848903 3.05175405 16.34848903 3.05175405 15.9375 5.4375 C15.0839895 9.832021 15.0839895 9.832021 14 12 C11.36 12 8.72 12 6 12 C5.73445313 11.30132812 5.46890625 10.60265625 5.1953125 9.8828125 C4.84210938 8.97273438 4.48890625 8.06265625 4.125 7.125 C3.77695313 6.22007813 3.42890625 5.31515625 3.0703125 4.3828125 C2.11469105 1.87782993 2.11469105 1.87782993 0 0 Z " fill="#0DAFCB" transform="translate(65,84)"/>
<path d="M0 0 C3.75396605 3.75396605 4.87308072 9.25485984 5.25 14.4375 C5 17 5 17 4 19 C2.02 19 0.04 19 -2 19 C-4.24942978 14.63345984 -4.06488501 11.75102543 -3 7 C-2.10898112 4.59424902 -1.09204306 2.32652652 0 0 Z " fill="#C4CACB" transform="translate(74,57)"/>
<path d="M0 0 C0.33 0 0.66 0 1 0 C1 16.17 1 32.34 1 49 C7.435 48.505 7.435 48.505 14 48 C14 48.99 14 49.98 14 51 C11.37403939 52.84526962 9.04872454 53.98375849 6 55 C5.34 54.67 4.68 54.34 4 54 C4 53.34 4 52.68 4 52 C3.34 52 2.68 52 2 52 C2 51.34 2 50.68 2 50 C1.34 50 0.68 50 0 50 C0 33.5 0 17 0 0 Z " fill="#B3D7DD" transform="translate(49,47)"/>
<path d="M0 0 C0.33 0 0.66 0 1 0 C1.17756865 7.02883106 1.30010649 14.05708363 1.38452148 21.08764648 C1.41971199 23.47881687 1.46747246 25.86983677 1.52807617 28.26049805 C1.61305142 31.69878236 1.65270357 35.13507564 1.68359375 38.57421875 C1.71972275 39.64210129 1.75585175 40.70998383 1.79307556 41.81022644 C1.79688248 49.01527804 1.79688248 49.01527804 -0.4994812 51.85293579 C-2.32659606 53.25464829 -3.81232611 54.27764873 -6 55 C-6.99 54.67 -7.98 54.34 -9 54 C-9 53.34 -9 52.68 -9 52 C-9.99 52 -10.98 52 -12 52 C-12.495 50.515 -12.495 50.515 -13 49 C-8.71 49 -4.42 49 0 49 C0 32.83 0 16.66 0 0 Z " fill="#B4D4DA" transform="translate(100,47)"/>
<path d="M0 0 C3.96 0 7.92 0 12 0 C12 12.54 12 25.08 12 38 C11.67 38 11.34 38 11 38 C11 25.79 11 13.58 11 1 C2.90795938 1.58094182 2.90795938 1.58094182 -1 3 C-0.67 2.01 -0.34 1.02 0 0 Z " fill="#05BEDE" transform="translate(88,47)"/>
<path d="M0 0 C0.99 0.33 1.98 0.66 3 1 C3.66 4.3 4.32 7.6 5 11 C4.34 11 3.68 11 3 11 C3 9.68 3 8.36 3 7 C1.35 7.66 -0.3 8.32 -2 9 C-1.34 6.03 -0.68 3.06 0 0 Z " fill="#B4C3C6" transform="translate(82,85)"/>
<path d="M0 0 C1.5 1.3125 1.5 1.3125 3 3 C3 3.99 3 4.98 3 6 C4.98 6 6.96 6 9 6 C9.33 5.01 9.66 4.02 10 3 C10.66 4.32 11.32 5.64 12 7 C7.71 7 3.42 7 -1 7 C-0.67 4.69 -0.34 2.38 0 0 Z " fill="#1CACC4" transform="translate(69,70)"/>
<path d="M0 0 C1.21386936 3.64160808 0.6674695 4.33165469 -0.9375 7.6875 C-1.31777344 8.49574219 -1.69804688 9.30398437 -2.08984375 10.13671875 C-2.39019531 10.75160156 -2.69054688 11.36648437 -3 12 C-3.33 12 -3.66 12 -4 12 C-4.22893297 8.96663814 -4.36475845 6.02534949 -4 3 C-2 0.9375 -2 0.9375 0 0 Z " fill="#09B1CE" transform="translate(54,84)"/>
<path d="M0 0 C4.62 0 9.24 0 14 0 C14 0.33 14 0.66 14 1 C9.71 1 5.42 1 1 1 C0.34 3.31 -0.32 5.62 -1 8 C-4 4.25 -4 4.25 -4 2 C-2.68 2 -1.36 2 0 2 C0 1.34 0 0.68 0 0 Z " fill="#DDE8E9" transform="translate(67,46)"/>
<path d="M0 0 C0.33 0.66 0.66 1.32 1 2 C-2.77494907 3.83354669 -4.97113896 4.27227191 -9 3 C-9.99 2.34 -10.98 1.68 -12 1 C-6.06 0.505 -6.06 0.505 0 0 Z " fill="#C6CECF" transform="translate(61,95)"/>
<path d="M0 0 C0.66 0 1.32 0 2 0 C3.0257259 4.41062136 3.03684712 6.92630576 1 11 C0.67 11 0.34 11 0 11 C0 7.37 0 3.74 0 0 Z " fill="#77B5BF" transform="translate(58,63)"/>
<path d="M0 0 C-1.09445838 0.86657116 -2.20097781 1.71792724 -3.3125 2.5625 C-3.92738281 3.03816406 -4.54226562 3.51382813 -5.17578125 4.00390625 C-5.77777344 4.33261719 -6.37976563 4.66132812 -7 5 C-7.99 4.67 -8.98 4.34 -10 4 C-10 3.34 -10 2.68 -10 2 C-3.375 -1.125 -3.375 -1.125 0 0 Z " fill="#DCDCDD" transform="translate(101,97)"/>
<path d="M0 0 C0.99 0.33 1.98 0.66 3 1 C3.33 2.65 3.66 4.3 4 6 C2.02 6 0.04 6 -2 6 C-1.34 4.02 -0.68 2.04 0 0 Z " fill="#AEBBBD" transform="translate(65,85)"/>
<path d="M0 0 C2.475 0.99 2.475 0.99 5 2 C4.67 3.98 4.34 5.96 4 8 C3.34 8 2.68 8 2 8 C1.34 5.36 0.68 2.72 0 0 Z " fill="#D5DFE0" transform="translate(81,48)"/>
<path d="M0 0 C2.35953094 2.35953094 2.49141413 3.77895617 3 7 C2.01 6.67 1.02 6.34 0 6 C-0.99 6.495 -0.99 6.495 -2 7 C-1.125 1.125 -1.125 1.125 0 0 Z " fill="#A9C4C8" transform="translate(74,57)"/>
<path d="M0 0 C3.96 0 7.92 0 12 0 C12 0.33 12 0.66 12 1 C11.31292969 1.06058594 10.62585938 1.12117188 9.91796875 1.18359375 C8.56638672 1.30927734 8.56638672 1.30927734 7.1875 1.4375 C5.84751953 1.55931641 5.84751953 1.55931641 4.48046875 1.68359375 C1.87256441 1.93489767 1.87256441 1.93489767 -1 3 C-0.67 2.01 -0.34 1.02 0 0 Z " fill="#17C1DF" transform="translate(88,47)"/>
</svg>
