<svg version="1.1" id="Layer_1" xmlns="http://www.w3.org/2000/svg" xmlns:xlink="http://www.w3.org/1999/xlink" x="0px" y="0px"
	 width="100%" viewBox="0 0 512 512" enable-background="new 0 0 512 512" xml:space="preserve">
<path fill="#FFFFFF" opacity="1.000000" stroke="none" 
	d="
M513.000000,227.000000 
	C513.000000,247.354233 513.000000,267.708466 512.631470,288.228607 
	C511.178802,293.726044 509.953033,299.033325 509.034576,304.393219 
	C504.603210,330.253174 495.856934,354.580872 483.718872,377.807312 
	C473.829681,396.730469 461.658234,414.071014 447.435181,429.857300 
	C433.236389,445.616638 417.223755,459.440552 399.457733,471.195312 
	C383.445984,481.789368 366.549500,490.744171 348.662262,497.514893 
	C331.974457,503.831573 314.853027,509.047546 296.961273,511.076538 
	C296.244049,511.157898 295.650940,512.333984 295.000000,513.000000 
	C292.958344,513.000000 290.916656,513.000000 288.784515,512.617004 
	C288.462677,510.641998 288.030090,509.050079 288.029083,507.457916 
	C287.994202,451.802673 287.998260,396.147430 288.009735,340.492157 
	C288.010040,339.057251 288.154938,337.622345 288.242889,335.993408 
	C311.208466,335.993408 333.834381,335.993408 356.788696,335.993408 
	C361.563232,310.024017 366.309814,284.206451 371.136566,257.952972 
	C343.232574,257.952972 315.806427,257.952972 287.053741,257.952972 
	C288.057678,240.441925 288.385162,223.282547 290.297180,206.301590 
	C291.226868,198.044891 295.514099,190.132568 302.135651,184.563187 
	C312.079437,176.199478 324.296204,173.506912 336.912323,173.091614 
	C349.502014,172.677170 362.115967,173.000702 374.801941,173.000702 
	C374.801941,149.411362 374.801941,126.311722 374.801941,102.939362 
	C363.574951,101.280518 352.553833,98.963570 341.425751,98.194839 
	C329.475555,97.369316 317.423248,97.870949 305.418427,98.023155 
	C288.554810,98.236961 272.283997,101.603058 256.680664,108.000694 
	C233.139145,117.653130 216.510101,134.170410 206.930267,157.866150 
	C198.870514,177.801971 195.862518,198.544464 195.985336,219.891937 
	C196.057861,232.496689 195.998611,245.102173 195.998611,258.105347 
	C178.086243,258.105347 160.680725,258.105347 143.252686,258.105347 
	C143.252686,284.245728 143.252686,309.980682 143.252686,336.118561 
	C160.907623,336.118561 178.313126,336.118561 195.791412,336.118561 
	C195.791412,393.275696 195.791412,450.028229 195.791412,507.452820 
	C185.090118,503.882538 174.655182,500.734222 164.461655,496.937653 
	C134.062347,485.615601 107.211655,468.371704 83.287018,446.648834 
	C67.206261,432.048004 53.427155,415.363129 41.613342,397.103394 
	C31.180799,380.978577 22.561703,363.885406 16.129597,345.832092 
	C9.683903,327.740601 4.424464,309.264343 2.920158,289.944885 
	C2.866127,289.250946 1.665988,288.646271 0.999998,288.000000 
	C1.000000,267.979095 1.000000,247.958206 1.368789,227.771301 
	C2.145446,227.099152 2.813620,226.643463 2.922902,226.079468 
	C5.319664,213.710190 7.048021,201.175308 10.135507,188.983932 
	C15.487208,167.851974 24.172153,148.004700 35.258770,129.197678 
	C43.697254,114.882889 53.218094,101.451180 64.311516,89.007996 
	C76.519638,75.314476 89.665260,62.804367 104.419350,51.892456 
	C119.669937,40.613338 135.716721,30.681522 153.243546,23.474773 
	C165.550797,18.414236 178.071243,13.506400 190.933060,10.259957 
	C204.708847,6.782819 219.000549,5.357319 233.048401,2.928430 
	C233.787964,2.800561 234.353470,1.665936 235.000000,0.999999 
	C249.354233,1.000000 263.708466,1.000000 278.223846,1.373650 
	C282.643799,2.497870 286.925690,3.137420 291.157074,4.019437 
	C304.892639,6.882562 318.763550,9.261155 332.295624,12.894317 
	C350.059021,17.663519 366.796295,25.239388 382.772156,34.363647 
	C400.618561,44.556221 417.530151,56.155716 432.064240,70.746803 
	C441.816681,80.537514 451.105316,90.860039 459.889221,101.530914 
	C477.381165,122.780327 489.815918,146.963715 498.953125,172.821671 
	C504.932312,189.742645 509.359711,207.085388 511.078247,225.035034 
	C511.146210,225.744858 512.333984,226.347443 513.000000,227.000000 
z"/>
<path fill="#000000" opacity="1.000000" stroke="none" 
	d="
M0.999998,288.468658 
	C1.665988,288.646271 2.866127,289.250946 2.920158,289.944885 
	C4.424464,309.264343 9.683903,327.740601 16.129597,345.832092 
	C22.561703,363.885406 31.180799,380.978577 41.613342,397.103394 
	C53.427155,415.363129 67.206261,432.048004 83.287018,446.648834 
	C107.211655,468.371704 134.062347,485.615601 164.461655,496.937653 
	C174.655182,500.734222 185.090118,503.882538 195.791412,507.452820 
	C195.791412,450.028229 195.791412,393.275696 195.791412,336.118561 
	C178.313126,336.118561 160.907623,336.118561 143.252686,336.118561 
	C143.252686,309.980682 143.252686,284.245728 143.252686,258.105347 
	C160.680725,258.105347 178.086243,258.105347 195.998611,258.105347 
	C195.998611,245.102173 196.057861,232.496689 195.985336,219.891937 
	C195.862518,198.544464 198.870514,177.801971 206.930267,157.866150 
	C216.510101,134.170410 233.139145,117.653130 256.680664,108.000694 
	C272.283997,101.603058 288.554810,98.236961 305.418427,98.023155 
	C317.423248,97.870949 329.475555,97.369316 341.425751,98.194839 
	C352.553833,98.963570 363.574951,101.280518 374.801941,102.939362 
	C374.801941,126.311722 374.801941,149.411362 374.801941,173.000702 
	C362.115967,173.000702 349.502014,172.677170 336.912323,173.091614 
	C324.296204,173.506912 312.079437,176.199478 302.135651,184.563187 
	C295.514099,190.132568 291.226868,198.044891 290.297180,206.301590 
	C288.385162,223.282547 288.057678,240.441925 287.053741,257.952972 
	C315.806427,257.952972 343.232574,257.952972 371.136566,257.952972 
	C366.309814,284.206451 361.563232,310.024017 356.788696,335.993408 
	C333.834381,335.993408 311.208466,335.993408 288.242889,335.993408 
	C288.154938,337.622345 288.010040,339.057251 288.009735,340.492157 
	C287.998260,396.147430 287.994202,451.802673 288.029083,507.457916 
	C288.030090,509.050079 288.462677,510.641998 288.347015,512.617004 
	C192.415115,513.000000 96.830231,513.000000 1.000000,513.000000 
	C1.000000,438.312622 1.000000,363.624969 0.999998,288.468658 
z"/>
<path fill="#000000" opacity="1.000000" stroke="none" 
	d="
M234.531342,0.999999 
	C234.353470,1.665936 233.787964,2.800561 233.048401,2.928430 
	C219.000549,5.357319 204.708847,6.782819 190.933060,10.259957 
	C178.071243,13.506400 165.550797,18.414236 153.243546,23.474773 
	C135.716721,30.681522 119.669937,40.613338 104.419350,51.892456 
	C89.665260,62.804367 76.519638,75.314476 64.311516,89.007996 
	C53.218094,101.451180 43.697254,114.882889 35.258770,129.197678 
	C24.172153,148.004700 15.487208,167.851974 10.135507,188.983932 
	C7.048021,201.175308 5.319664,213.710190 2.922902,226.079468 
	C2.813620,226.643463 2.145446,227.099152 1.368789,227.302643 
	C1.000000,151.738358 1.000000,76.476707 1.000000,1.000000 
	C78.687431,1.000000 156.375061,1.000000 234.531342,0.999999 
z"/>
<path fill="#000000" opacity="1.000000" stroke="none" 
	d="
M513.000000,226.531342 
	C512.333984,226.347443 511.146210,225.744858 511.078247,225.035034 
	C509.359711,207.085388 504.932312,189.742645 498.953125,172.821671 
	C489.815918,146.963715 477.381165,122.780327 459.889221,101.530914 
	C451.105316,90.860039 441.816681,80.537514 432.064240,70.746803 
	C417.530151,56.155716 400.618561,44.556221 382.772156,34.363647 
	C366.796295,25.239388 350.059021,17.663519 332.295624,12.894317 
	C318.763550,9.261155 304.892639,6.882562 291.157074,4.019437 
	C286.925690,3.137420 282.643799,2.497870 278.692505,1.373650 
	C356.925751,1.000000 434.851532,1.000000 513.000000,1.000000 
	C513.000000,76.020744 513.000000,151.041718 513.000000,226.531342 
z"/>
<path fill="#000000" opacity="1.000000" stroke="none" 
	d="
M295.468658,513.000000 
	C295.650940,512.333984 296.244049,511.157898 296.961273,511.076538 
	C314.853027,509.047546 331.974457,503.831573 348.662262,497.514893 
	C366.549500,490.744171 383.445984,481.789368 399.457733,471.195312 
	C417.223755,459.440552 433.236389,445.616638 447.435181,429.857300 
	C461.658234,414.071014 473.829681,396.730469 483.718872,377.807312 
	C495.856934,354.580872 504.603210,330.253174 509.034576,304.393219 
	C509.953033,299.033325 511.178802,293.726044 512.631470,288.697266 
	C513.000000,363.592712 513.000000,438.185425 513.000000,513.000000 
	C440.645935,513.000000 368.291626,513.000000 295.468658,513.000000 
z"/>
</svg>