<svg version="1.1" id="Layer_1" xmlns="http://www.w3.org/2000/svg" xmlns:xlink="http://www.w3.org/1999/xlink" x="0px" y="0px"
	 width="100%" viewBox="0 0 415 415" enable-background="new 0 0 415 415" xml:space="preserve">
<path fill="#000000" opacity="1.000000" stroke="none" 
	d="
M249.000000,416.000000 
	C166.000015,416.000000 83.500023,416.000000 1.000022,416.000000 
	C1.000015,277.666687 1.000015,139.333389 1.000007,1.000059 
	C139.333298,1.000040 277.666595,1.000040 415.999908,1.000020 
	C415.999939,139.333267 415.999939,277.666534 415.999969,415.999908 
	C360.500000,416.000000 305.000000,416.000000 249.000000,416.000000 
M103.004288,250.242783 
	C101.705818,248.479584 100.407341,246.716385 99.005730,244.341949 
	C98.708542,243.880585 98.411354,243.419220 98.005409,242.238571 
	C97.373482,240.810211 96.741554,239.381836 96.002808,237.207794 
	C90.854805,228.110474 88.983894,218.367584 89.959175,207.973114 
	C90.457260,202.664551 90.554726,197.318420 91.006371,191.539993 
	C91.281891,190.756042 91.557411,189.972076 91.955215,188.680786 
	C91.914024,188.339203 91.872841,187.997604 92.185410,187.246674 
	C95.902504,176.250031 100.954147,165.960556 107.983139,156.655075 
	C109.764435,154.296844 113.317482,153.005981 112.110619,148.675415 
	C110.473099,142.799545 109.428139,136.745468 108.360069,130.726837 
	C106.455490,119.994408 105.955528,109.150169 109.341072,98.703613 
	C110.478271,95.194633 111.237045,89.960312 117.742378,89.987595 
	C118.495033,89.936134 119.247688,89.884666 120.746475,90.198799 
	C129.478226,92.831482 138.209991,95.464165 146.986404,98.016327 
	C146.986404,98.016327 146.905655,98.060577 147.143829,98.680115 
	C148.081863,99.158348 149.019913,99.636581 150.171173,100.697861 
	C150.766418,100.836395 151.361649,100.974937 152.205368,101.750061 
	C156.201050,105.065308 160.577744,108.026588 164.081772,111.798561 
	C167.373367,115.341858 170.320053,115.718948 174.860870,113.007179 
	C176.250702,112.671097 177.644852,112.351883 179.029678,111.996330 
	C193.125290,108.377350 207.481827,106.935692 222.873077,106.988167 
	C225.279160,107.325012 227.679642,107.901833 230.092255,107.957909 
	C241.686295,108.227394 252.789352,110.958801 263.809509,114.267403 
	C264.942230,114.607475 266.629852,114.432671 267.583435,113.789856 
	C270.640411,111.729210 273.589386,109.469658 276.372284,107.048096 
	C286.867035,97.916100 298.794861,92.351311 312.785980,90.866234 
	C321.447113,89.946899 324.403412,91.108551 325.881378,99.643944 
	C327.156403,107.007172 327.443054,114.541542 328.001770,122.824120 
	C326.329803,131.518112 324.583038,140.199066 323.062134,148.919403 
	C322.819275,150.311920 323.103394,152.291016 323.962128,153.308029 
	C341.539856,174.125351 349.111206,197.654282 342.919739,224.649521 
	C338.492920,243.950577 328.035736,259.506592 311.230164,270.154297 
	C302.879669,275.445068 293.767853,279.534119 284.283203,284.014862 
	C282.839874,284.640198 281.396576,285.265503 279.301392,285.993347 
	C278.867706,286.051147 278.434052,286.108948 277.216309,286.017975 
	C267.812378,288.220184 258.408447,290.422424 248.408829,292.764130 
	C255.047913,301.547058 261.992432,309.632263 267.656097,318.532532 
	C273.467377,327.664795 275.469025,338.376587 277.012787,349.858521 
	C277.008698,357.382568 276.979187,364.906708 277.007446,372.430634 
	C277.037689,380.478271 277.122437,388.525726 277.005432,397.131744 
	C277.005432,398.348206 277.005432,399.564667 277.005432,401.609039 
	C279.612885,400.911194 281.630432,400.371216 284.031342,399.609406 
	C284.386841,399.425323 284.742310,399.241241 285.665100,399.004089 
	C286.456726,398.708405 287.248322,398.412750 288.794342,398.002930 
	C295.797913,394.552246 302.925842,391.330536 309.781189,387.606873 
	C328.454224,377.464172 344.791504,364.269867 359.720154,348.713959 
	C359.720154,348.713959 359.878448,348.380310 360.416138,348.036743 
	C361.024963,347.105469 361.577759,346.131378 362.251343,345.249634 
	C368.433380,337.157013 374.636353,329.080444 381.120087,320.348694 
	C381.469635,319.994690 381.893311,319.688690 382.158142,319.279755 
	C400.949432,290.266479 411.426910,258.318939 413.728577,224.016022 
	C414.694031,209.627792 412.988251,195.016159 411.926971,180.547882 
	C410.739288,164.355667 406.007202,148.970428 400.039185,133.924316 
	C387.662109,102.720161 369.087067,76.020576 343.628052,53.964058 
	C326.464264,39.094143 307.398773,27.666481 286.556427,18.875217 
	C266.415497,10.379808 245.357239,5.543833 223.705200,4.209463 
	C206.634399,3.157425 189.470581,3.645866 172.473969,6.910738 
	C156.303558,10.016906 140.520004,14.364496 125.600708,21.207270 
	C97.770584,33.971634 72.927147,51.074314 53.590900,75.124771 
	C45.010735,85.796799 36.880886,96.998177 29.921909,108.772125 
	C14.592268,134.708466 6.455251,163.212036 4.236875,193.119705 
	C3.199858,207.100555 3.674238,221.381409 5.265241,235.320663 
	C7.159823,251.919678 11.681452,268.030060 17.812458,283.763184 
	C27.779589,309.340454 42.371155,331.806030 61.216866,351.498901 
	C68.328278,358.929932 76.422256,365.498077 84.508957,371.903290 
	C105.197594,388.290192 128.494080,399.579163 153.950348,406.531769 
	C157.562531,407.518311 158.141022,405.966766 157.958359,403.177521 
	C157.865051,401.752655 157.082687,400.356812 157.074097,398.945038 
	C157.000107,386.764404 157.031540,374.583191 157.031540,362.000427 
	C148.484375,362.000427 139.282379,362.742249 130.269608,361.755524 
	C123.583542,361.023529 116.730919,358.877380 110.688713,355.878052 
	C101.300346,351.217651 98.107948,341.677612 94.956360,332.367767 
	C91.080978,320.919800 86.362663,309.943787 76.513512,302.051514 
	C75.230881,301.023712 74.708099,299.047668 73.833374,297.510834 
	C75.906204,296.682037 78.083969,294.993683 80.026672,295.230835 
	C82.771881,295.565948 85.889046,296.732574 87.891289,298.579865 
	C95.167862,305.293182 102.164963,312.323944 109.029793,319.463531 
	C113.068214,323.663605 117.174858,327.579102 123.305229,327.961945 
	C130.526657,328.412903 137.767288,328.556427 145.850235,328.987885 
	C149.212692,328.658569 152.628464,328.591309 155.921555,327.921112 
	C158.814850,327.332306 162.066086,326.674683 164.228882,324.908295 
	C165.927200,323.521271 166.205429,320.395477 167.697678,317.829010 
	C167.836212,317.233704 167.974747,316.638428 168.759811,315.784821 
	C172.784302,310.189606 176.808792,304.594391 180.990799,298.568848 
	C180.990799,298.568848 181.043045,298.113556 181.792801,297.756348 
	C182.839523,296.494568 183.886246,295.232758 184.932983,293.970978 
	C183.449524,293.314087 182.002884,292.542114 180.466568,292.050323 
	C179.731979,291.815155 178.827316,292.111206 177.193909,292.003387 
	C172.938004,290.670044 168.671875,289.368408 164.428391,287.996643 
	C156.218903,285.342865 147.792145,283.193207 139.875168,279.842743 
	C128.551483,275.050629 118.527687,268.063477 109.860451,258.325378 
	C107.593674,255.852112 105.326897,253.378845 103.015800,250.986191 
	C103.015800,250.986191 103.096237,250.941559 103.004288,250.242783 
z"/>
<path fill="#FFFFFF" opacity="1.000000" stroke="none" 
	d="
M144.999573,328.833221 
	C137.767288,328.556427 130.526657,328.412903 123.305229,327.961945 
	C117.174858,327.579102 113.068214,323.663605 109.029793,319.463531 
	C102.164963,312.323944 95.167862,305.293182 87.891289,298.579865 
	C85.889046,296.732574 82.771881,295.565948 80.026672,295.230835 
	C78.083969,294.993683 75.906204,296.682037 73.833374,297.510834 
	C74.708099,299.047668 75.230881,301.023712 76.513512,302.051514 
	C86.362663,309.943787 91.080978,320.919800 94.956360,332.367767 
	C98.107948,341.677612 101.300346,351.217651 110.688713,355.878052 
	C116.730919,358.877380 123.583542,361.023529 130.269608,361.755524 
	C139.282379,362.742249 148.484375,362.000427 157.031540,362.000427 
	C157.031540,374.583191 157.000107,386.764404 157.074097,398.945038 
	C157.082687,400.356812 157.865051,401.752655 157.958359,403.177521 
	C158.141022,405.966766 157.562531,407.518311 153.950348,406.531769 
	C128.494080,399.579163 105.197594,388.290192 84.508957,371.903290 
	C76.422256,365.498077 68.328278,358.929932 61.216866,351.498901 
	C42.371155,331.806030 27.779589,309.340454 17.812458,283.763184 
	C11.681452,268.030060 7.159823,251.919678 5.265241,235.320663 
	C3.674238,221.381409 3.199858,207.100555 4.236875,193.119705 
	C6.455251,163.212036 14.592268,134.708466 29.921909,108.772125 
	C36.880886,96.998177 45.010735,85.796799 53.590900,75.124771 
	C72.927147,51.074314 97.770584,33.971634 125.600708,21.207270 
	C140.520004,14.364496 156.303558,10.016906 172.473969,6.910738 
	C189.470581,3.645866 206.634399,3.157425 223.705200,4.209463 
	C245.357239,5.543833 266.415497,10.379808 286.556427,18.875217 
	C307.398773,27.666481 326.464264,39.094143 343.628052,53.964058 
	C369.087067,76.020576 387.662109,102.720161 400.039185,133.924316 
	C406.007202,148.970428 410.739288,164.355667 411.926971,180.547882 
	C412.988251,195.016159 414.694031,209.627792 413.728577,224.016022 
	C411.426910,258.318939 400.949432,290.266479 382.158142,319.279755 
	C381.893311,319.688690 381.469635,319.994690 380.619629,320.679596 
	C378.301788,322.318176 376.112610,323.319244 374.735016,324.989624 
	C370.138245,330.563416 365.680359,336.269714 361.513092,342.168152 
	C360.355804,343.806213 360.390564,346.286469 359.878418,348.380310 
	C359.878448,348.380310 359.720154,348.713959 359.233521,348.588989 
	C356.675659,349.631683 354.358154,350.508057 352.574768,352.016144 
	C343.607788,359.598541 335.450409,368.360809 325.733276,374.777100 
	C313.732208,382.701416 301.764832,391.055237 287.650757,396.159485 
	C286.566956,397.231689 285.832367,398.144409 285.097809,399.057159 
	C284.742310,399.241241 284.386841,399.425323 283.389648,399.461121 
	C280.893127,398.399658 279.038239,397.486450 277.183380,396.573242 
	C277.122437,388.525726 277.037689,380.478271 277.007446,372.430634 
	C276.979187,364.906708 277.008698,357.382568 277.431274,349.352600 
	C277.782227,345.038177 278.360657,341.082764 277.533936,337.446838 
	C274.173035,322.665771 267.296539,309.685760 256.452515,298.932587 
	C255.234482,297.724762 254.152481,296.379822 252.260803,294.263031 
	C256.711700,293.354858 260.158539,292.992249 263.367096,291.918030 
	C268.330353,290.256287 273.130859,288.108398 278.000366,286.166718 
	C278.434052,286.108948 278.867706,286.051147 279.839111,286.223663 
	C282.835541,287.546356 284.469482,286.971466 285.000427,284.166809 
	C293.767853,279.534119 302.879669,275.445068 311.230164,270.154297 
	C328.035736,259.506592 338.492920,243.950577 342.919739,224.649521 
	C349.111206,197.654282 341.539856,174.125351 323.962128,153.308029 
	C323.103394,152.291016 322.819275,150.311920 323.062134,148.919403 
	C324.583038,140.199066 326.329803,131.518112 328.463654,122.308044 
	C329.265228,121.264954 329.855194,120.761337 329.907013,120.207390 
	C330.676300,111.982796 330.728790,103.786659 327.419159,96.014893 
	C326.052704,92.806305 325.563690,88.499809 320.939453,88.088036 
	C317.650879,87.795204 314.236542,87.691948 311.000885,88.234680 
	C294.892761,90.936569 281.144562,98.531570 269.199585,109.430374 
	C266.451813,111.937485 264.205780,111.778381 260.756836,111.083656 
	C248.745987,108.664268 236.593124,106.940758 224.471130,105.105469 
	C223.750992,104.996452 222.828125,106.226402 221.999603,106.833275 
	C207.481827,106.935692 193.125290,108.377350 179.029678,111.996330 
	C177.644852,112.351883 176.250702,112.671097 174.210815,112.762207 
	C171.669235,112.096886 169.429077,112.177338 167.957932,111.153168 
	C164.782684,108.942657 162.187042,105.893684 158.992905,103.718384 
	C156.986710,102.352097 154.324692,101.948814 151.956894,101.113480 
	C151.361649,100.974937 150.766418,100.836395 150.025406,100.046097 
	C148.888306,98.949745 147.896988,98.505165 146.905655,98.060577 
	C146.905655,98.060577 146.986404,98.016327 146.945374,97.694214 
	C146.325943,96.612999 145.889343,95.394615 145.147278,95.165451 
	C137.288757,92.738655 129.387894,90.446793 121.464890,88.239059 
	C121.149292,88.151123 120.496193,89.274323 120.000343,89.833206 
	C119.247688,89.884666 118.495033,89.936134 117.294220,89.566223 
	C114.175011,86.754784 111.833229,88.379799 110.877281,90.569153 
	C108.952393,94.977592 107.534866,99.654327 106.357422,104.333450 
	C103.022133,117.587852 105.975128,130.529526 108.660118,143.468597 
	C109.445992,147.255737 109.459511,150.295410 106.853539,154.243271 
	C100.750122,163.489502 96.103470,173.707352 91.074722,183.637009 
	C90.586258,184.601532 91.544800,186.298859 91.831650,187.656021 
	C91.872841,187.997604 91.914024,188.339203 91.409691,188.878540 
	C90.242775,189.717529 89.621391,190.358765 88.840286,191.366501 
	C84.537384,208.710342 88.128067,224.837357 94.139465,240.675674 
	C94.364006,241.267273 95.362289,241.565216 96.180710,242.250580 
	C96.945671,242.653397 97.529915,242.805634 98.114166,242.957886 
	C98.411354,243.419220 98.708542,243.880585 98.780296,244.846863 
	C97.826263,249.036850 100.243919,250.165771 103.096237,250.941559 
	C103.096237,250.941559 103.015800,250.986191 103.021133,251.350708 
	C102.545967,256.258942 106.044838,257.933472 109.034668,260.347961 
	C113.037544,269.108795 121.634651,272.149750 128.614578,276.793274 
	C134.843384,280.937134 141.978561,284.125519 149.143387,286.354736 
	C158.541656,289.278809 168.361481,290.848053 178.059311,293.353271 
	C179.093430,295.175568 180.068237,296.644562 181.043045,298.113556 
	C181.043045,298.113556 180.990799,298.568848 180.556213,298.789581 
	C173.368927,302.118683 170.222916,308.273468 167.175659,314.475800 
	C167.029663,314.772949 167.780243,315.510620 168.113281,316.043121 
	C167.974747,316.638428 167.836212,317.233704 167.025208,317.930481 
	C165.731842,318.209534 164.674103,318.237457 164.554398,318.586792 
	C162.014221,325.999268 156.055099,326.221497 149.655762,326.148865 
	C148.114059,326.131378 146.552170,327.890930 144.999573,328.833221 
z"/>
<path fill="#FFFFFF" opacity="1.000000" stroke="none" 
	d="
M222.436340,106.910721 
	C222.828125,106.226402 223.750992,104.996452 224.471130,105.105469 
	C236.593124,106.940758 248.745987,108.664268 260.756836,111.083656 
	C264.205780,111.778381 266.451813,111.937485 269.199585,109.430374 
	C281.144562,98.531570 294.892761,90.936569 311.000885,88.234680 
	C314.236542,87.691948 317.650879,87.795204 320.939453,88.088036 
	C325.563690,88.499809 326.052704,92.806305 327.419159,96.014893 
	C330.728790,103.786659 330.676300,111.982796 329.907013,120.207390 
	C329.855194,120.761337 329.265228,121.264954 328.546112,121.896118 
	C327.443054,114.541542 327.156403,107.007172 325.881378,99.643944 
	C324.403412,91.108551 321.447113,89.946899 312.785980,90.866234 
	C298.794861,92.351311 286.867035,97.916100 276.372284,107.048096 
	C273.589386,109.469658 270.640411,111.729210 267.583435,113.789856 
	C266.629852,114.432671 264.942230,114.607475 263.809509,114.267403 
	C252.789352,110.958801 241.686295,108.227394 230.092255,107.957909 
	C227.679642,107.901833 225.279160,107.325012 222.436340,106.910721 
z"/>
<path fill="#FFFFFF" opacity="1.000000" stroke="none" 
	d="
M92.008530,187.451355 
	C91.544800,186.298859 90.586258,184.601532 91.074722,183.637009 
	C96.103470,173.707352 100.750122,163.489502 106.853539,154.243271 
	C109.459511,150.295410 109.445992,147.255737 108.660118,143.468597 
	C105.975128,130.529526 103.022133,117.587852 106.357422,104.333450 
	C107.534866,99.654327 108.952393,94.977592 110.877281,90.569153 
	C111.833229,88.379799 114.175011,86.754784 116.923164,89.489029 
	C111.237045,89.960312 110.478271,95.194633 109.341072,98.703613 
	C105.955528,109.150169 106.455490,119.994408 108.360069,130.726837 
	C109.428139,136.745468 110.473099,142.799545 112.110619,148.675415 
	C113.317482,153.005981 109.764435,154.296844 107.983139,156.655075 
	C100.954147,165.960556 95.902504,176.250031 92.008530,187.451355 
z"/>
<path fill="#FFFFFF" opacity="1.000000" stroke="none" 
	d="
M277.608337,286.092346 
	C273.130859,288.108398 268.330353,290.256287 263.367096,291.918030 
	C260.158539,292.992249 256.711700,293.354858 252.260803,294.263031 
	C254.152481,296.379822 255.234482,297.724762 256.452515,298.932587 
	C267.296539,309.685760 274.173035,322.665771 277.533936,337.446838 
	C278.360657,341.082764 277.782227,345.038177 277.508362,348.923523 
	C275.469025,338.376587 273.467377,327.664795 267.656097,318.532532 
	C261.992432,309.632263 255.047913,301.547058 248.408829,292.764130 
	C258.408447,290.422424 267.812378,288.220184 277.608337,286.092346 
z"/>
<path fill="#FFFFFF" opacity="1.000000" stroke="none" 
	d="
M288.000000,396.000000 
	C301.764832,391.055237 313.732208,382.701416 325.733276,374.777100 
	C335.450409,368.360809 343.607788,359.598541 352.574768,352.016144 
	C354.358154,350.508057 356.675659,349.631683 359.067383,348.669617 
	C344.791504,364.269867 328.454224,377.464172 309.781189,387.606873 
	C302.925842,391.330536 295.797913,394.552246 288.406158,397.707245 
	C288.011993,396.941040 288.005981,396.470520 288.000000,396.000000 
z"/>
<path fill="#FFFFFF" opacity="1.000000" stroke="none" 
	d="
M178.000000,293.000000 
	C168.361481,290.848053 158.541656,289.278809 149.143387,286.354736 
	C141.978561,284.125519 134.843384,280.937134 128.614578,276.793274 
	C121.634651,272.149750 113.037544,269.108795 109.159607,260.116364 
	C109.537300,259.343079 109.824722,259.149384 110.112152,258.955688 
	C118.527687,268.063477 128.551483,275.050629 139.875168,279.842743 
	C147.792145,283.193207 156.218903,285.342865 164.428391,287.996643 
	C168.671875,289.368408 172.938004,290.670044 177.596954,292.293335 
	C178.000000,292.583313 178.000000,293.000000 178.000000,293.000000 
z"/>
<path fill="#FFFFFF" opacity="1.000000" stroke="none" 
	d="
M96.000000,242.000000 
	C95.362289,241.565216 94.364006,241.267273 94.139465,240.675674 
	C88.128067,224.837357 84.537384,208.710342 89.082977,191.462830 
	C89.934677,191.458206 90.383980,191.723740 90.833275,191.989273 
	C90.554726,197.318420 90.457260,202.664551 89.959175,207.973114 
	C88.983894,218.367584 90.854805,228.110474 95.795746,237.760651 
	C95.725784,239.542343 95.862892,240.771179 96.000000,242.000000 
z"/>
<path fill="#FFFFFF" opacity="1.000000" stroke="none" 
	d="
M360.147278,348.208527 
	C360.390564,346.286469 360.355804,343.806213 361.513092,342.168152 
	C365.680359,336.269714 370.138245,330.563416 374.735016,324.989624 
	C376.112610,323.319244 378.301788,322.318176 380.476196,321.004822 
	C374.636353,329.080444 368.433380,337.157013 362.251343,345.249634 
	C361.577759,346.131378 361.024963,347.105469 360.147278,348.208527 
z"/>
<path fill="#FFFFFF" opacity="1.000000" stroke="none" 
	d="
M152.081131,101.431770 
	C154.324692,101.948814 156.986710,102.352097 158.992905,103.718384 
	C162.187042,105.893684 164.782684,108.942657 167.957932,111.153168 
	C169.429077,112.177338 171.669235,112.096886 173.803741,112.813217 
	C170.320053,115.718948 167.373367,115.341858 164.081772,111.798561 
	C160.577744,108.026588 156.201050,105.065308 152.081131,101.431770 
z"/>
<path fill="#FFFFFF" opacity="1.000000" stroke="none" 
	d="
M120.373413,90.016006 
	C120.496193,89.274323 121.149292,88.151123 121.464890,88.239059 
	C129.387894,90.446793 137.288757,92.738655 145.147278,95.165451 
	C145.889343,95.394615 146.325943,96.612999 146.923050,97.734482 
	C138.209991,95.464165 129.478226,92.831482 120.373413,90.016006 
z"/>
<path fill="#FFFFFF" opacity="1.000000" stroke="none" 
	d="
M145.424896,328.910553 
	C146.552170,327.890930 148.114059,326.131378 149.655762,326.148865 
	C156.055099,326.221497 162.014221,325.999268 164.554398,318.586792 
	C164.674103,318.237457 165.731842,318.209534 166.733643,318.037048 
	C166.205429,320.395477 165.927200,323.521271 164.228882,324.908295 
	C162.066086,326.674683 158.814850,327.332306 155.921555,327.921112 
	C152.628464,328.591309 149.212692,328.658569 145.424896,328.910553 
z"/>
<path fill="#FFFFFF" opacity="1.000000" stroke="none" 
	d="
M168.436554,315.913971 
	C167.780243,315.510620 167.029663,314.772949 167.175659,314.475800 
	C170.222916,308.273468 173.368927,302.118683 180.477448,299.004761 
	C176.808792,304.594391 172.784302,310.189606 168.436554,315.913971 
z"/>
<path fill="#FFFFFF" opacity="1.000000" stroke="none" 
	d="
M178.059311,293.353271 
	C178.000000,293.000000 178.000000,292.583313 177.999847,292.374969 
	C178.827316,292.111206 179.731979,291.815155 180.466568,292.050323 
	C182.002884,292.542114 183.449524,293.314087 184.932983,293.970978 
	C183.886246,295.232758 182.839523,296.494568 181.417923,297.934937 
	C180.068237,296.644562 179.093430,295.175568 178.059311,293.353271 
z"/>
<path fill="#FFFFFF" opacity="1.000000" stroke="none" 
	d="
M109.986298,258.640533 
	C109.824722,259.149384 109.537300,259.343079 109.124939,259.768372 
	C106.044838,257.933472 102.545967,256.258942 103.043297,251.310394 
	C105.326897,253.378845 107.593674,255.852112 109.986298,258.640533 
z"/>
<path fill="#FFFFFF" opacity="1.000000" stroke="none" 
	d="
M277.094421,396.852478 
	C279.038239,397.486450 280.893127,398.399658 283.197968,399.572021 
	C281.630432,400.371216 279.612885,400.911194 277.005432,401.609039 
	C277.005432,399.564667 277.005432,398.348206 277.094421,396.852478 
z"/>
<path fill="#FFFFFF" opacity="1.000000" stroke="none" 
	d="
M103.050262,250.592163 
	C100.243919,250.165771 97.826263,249.036850 98.831863,245.152481 
	C100.407341,246.716385 101.705818,248.479584 103.050262,250.592163 
z"/>
<path fill="#FFFFFF" opacity="1.000000" stroke="none" 
	d="
M284.641815,284.090820 
	C284.469482,286.971466 282.835541,287.546356 280.165039,286.172424 
	C281.396576,285.265503 282.839874,284.640198 284.641815,284.090820 
z"/>
<path fill="#FFFFFF" opacity="1.000000" stroke="none" 
	d="
M96.180710,242.250580 
	C95.862892,240.771179 95.725784,239.542343 95.849152,238.133499 
	C96.741554,239.381836 97.373482,240.810211 98.059784,242.598236 
	C97.529915,242.805634 96.945671,242.653397 96.180710,242.250580 
z"/>
<path fill="#FFFFFF" opacity="1.000000" stroke="none" 
	d="
M90.919823,191.764633 
	C90.383980,191.723740 89.934677,191.458206 89.242691,191.096344 
	C89.621391,190.358765 90.242775,189.717529 91.348557,189.132202 
	C91.557411,189.972076 91.281891,190.756042 90.919823,191.764633 
z"/>
<path fill="#FFFFFF" opacity="1.000000" stroke="none" 
	d="
M287.650757,396.159485 
	C288.005981,396.470520 288.011993,396.941040 288.028961,397.764313 
	C287.248322,398.412750 286.456726,398.708405 285.381470,399.030640 
	C285.832367,398.144409 286.566956,397.231689 287.650757,396.159485 
z"/>
<path fill="#FFFFFF" opacity="1.000000" stroke="none" 
	d="
M147.024750,98.370346 
	C147.896988,98.505165 148.888306,98.949745 149.918793,99.754570 
	C149.019913,99.636581 148.081863,99.158348 147.024750,98.370346 
z"/>
</svg>