<svg version="1.1" id="Layer_1" xmlns="http://www.w3.org/2000/svg" xmlns:xlink="http://www.w3.org/1999/xlink" x="0px" y="0px"
	 width="100%" viewBox="0 0 512 512" enable-background="new 0 0 512 512" xml:space="preserve">
<path fill="#FFFFFF" opacity="1.000000" stroke="none" 
	d="
M366.000000,513.000000 
	C292.312439,513.000000 218.624878,513.000000 144.777588,512.622925 
	C143.111710,511.830414 141.629669,511.234467 140.095428,511.029602 
	C131.557159,509.889496 122.848061,509.538208 114.490074,507.633057 
	C91.817726,502.465088 70.793236,493.837555 52.697571,478.454437 
	C35.177731,463.560883 22.202362,445.740601 14.039227,424.387787 
	C7.101609,406.240540 3.457901,387.392914 2.917759,367.945343 
	C2.890019,366.946564 1.666690,365.981018 1.000003,365.000000 
	C1.000000,291.645782 1.000000,218.291550 1.377095,144.777603 
	C2.169586,143.111450 2.765427,141.629105 2.970449,140.094559 
	C4.111379,131.554932 4.464930,122.844841 6.369389,114.485023 
	C11.535721,91.806892 20.187149,70.794456 35.551994,52.679073 
	C50.433407,35.133671 68.315308,22.250317 89.624107,14.045764 
	C107.598122,7.125205 126.301697,3.554340 145.569977,2.917493 
	C146.400208,2.890053 147.190887,1.666408 148.000000,0.999998 
	C221.687561,1.000000 295.375122,1.000000 369.222412,1.377097 
	C370.888275,2.169589 372.370331,2.765568 373.904572,2.970427 
	C382.442810,4.110484 391.151917,4.461740 399.509857,6.366887 
	C422.182129,11.534894 443.206451,20.162441 461.302185,35.545330 
	C478.822144,50.438728 491.796906,68.259186 499.960663,89.611504 
	C506.898895,107.758530 510.541138,126.606354 511.082214,146.053650 
	C511.110046,147.052780 512.333313,148.018646 513.000000,149.000000 
	C513.000000,222.354233 513.000000,295.708466 512.622925,369.222412 
	C511.830414,370.888611 511.234650,372.370972 511.029602,373.905579 
	C509.888519,382.445435 509.517883,391.150146 507.633362,399.516846 
	C502.520691,422.215515 493.761261,443.187866 478.444000,461.296051 
	C463.591675,478.854645 445.736359,491.797668 424.382782,499.963165 
	C406.391998,506.842712 387.699615,510.446411 368.430115,511.082550 
	C367.599884,511.109955 366.809143,512.333618 366.000000,513.000000 
M48.936436,163.152374 
	C48.624187,165.075775 48.042175,166.998795 48.039501,168.922638 
	C47.985554,207.751831 47.890739,246.581512 48.041927,285.410187 
	C48.119507,305.334167 48.497387,325.260864 49.056702,345.177429 
	C49.361404,356.027496 50.173134,366.871429 51.037128,377.695679 
	C52.126484,391.343353 55.654648,404.469177 62.056160,416.519714 
	C72.315407,435.832306 87.832031,449.362000 108.506271,457.064819 
	C127.495461,464.139862 147.440308,465.593201 167.179581,465.731506 
	C226.420761,466.146667 285.671265,465.429321 344.916199,464.926086 
	C355.761536,464.833984 366.615234,463.876312 377.433990,462.953674 
	C392.540070,461.665405 406.987793,457.737823 420.064087,449.939209 
	C437.620239,439.468933 449.960632,424.646454 457.116241,405.268250 
	C464.385040,385.583435 465.774292,364.974152 465.717224,344.579102 
	C465.533051,278.739441 468.269287,212.853653 463.866852,147.066315 
	C463.155762,136.440079 461.652100,125.658287 458.808075,115.422600 
	C450.348450,84.975723 430.553528,64.903732 400.469482,55.176750 
	C382.218994,49.275879 363.130005,48.336937 344.297272,48.236401 
	C285.549835,47.922787 226.796051,48.575993 168.046646,49.077221 
	C157.701813,49.165482 147.357742,50.219696 137.028168,51.019447 
	C121.365799,52.232082 106.491737,56.445286 93.044556,64.573433 
	C77.682632,73.858955 66.047462,86.712036 59.010387,103.416267 
	C51.087940,122.222137 48.944435,142.030319 48.936436,163.152374 
z"/>
<path fill="#000000" opacity="1.000000" stroke="none" 
	d="
M513.000000,148.531342 
	C512.333313,148.018646 511.110046,147.052780 511.082214,146.053650 
	C510.541138,126.606354 506.898895,107.758530 499.960663,89.611504 
	C491.796906,68.259186 478.822144,50.438728 461.302185,35.545330 
	C443.206451,20.162441 422.182129,11.534894 399.509857,6.366887 
	C391.151917,4.461740 382.442810,4.110484 373.904572,2.970427 
	C372.370331,2.765568 370.888275,2.169589 369.691071,1.377097 
	C417.594910,1.000000 465.189819,1.000000 513.000000,1.000000 
	C513.000000,50.020683 513.000000,99.041687 513.000000,148.531342 
z"/>
<path fill="#000000" opacity="1.000000" stroke="none" 
	d="
M1.000003,365.468658 
	C1.666690,365.981018 2.890019,366.946564 2.917759,367.945343 
	C3.457901,387.392914 7.101609,406.240540 14.039227,424.387787 
	C22.202362,445.740601 35.177731,463.560883 52.697571,478.454437 
	C70.793236,493.837555 91.817726,502.465088 114.490074,507.633057 
	C122.848061,509.538208 131.557159,509.889496 140.095428,511.029602 
	C141.629669,511.234467 143.111710,511.830414 144.308929,512.622925 
	C96.405090,513.000000 48.810181,513.000000 1.000000,513.000000 
	C1.000000,463.979309 1.000000,414.958313 1.000003,365.468658 
z"/>
<path fill="#000000" opacity="1.000000" stroke="none" 
	d="
M147.531342,0.999998 
	C147.190887,1.666408 146.400208,2.890053 145.569977,2.917493 
	C126.301697,3.554340 107.598122,7.125205 89.624107,14.045764 
	C68.315308,22.250317 50.433407,35.133671 35.551994,52.679073 
	C20.187149,70.794456 11.535721,91.806892 6.369389,114.485023 
	C4.464930,122.844841 4.111379,131.554932 2.970449,140.094559 
	C2.765427,141.629105 2.169586,143.111450 1.377095,144.308945 
	C1.000000,96.405327 1.000000,48.810658 1.000000,1.000000 
	C49.687347,1.000000 98.375015,1.000000 147.531342,0.999998 
z"/>
<path fill="#000000" opacity="1.000000" stroke="none" 
	d="
M366.468658,513.000000 
	C366.809143,512.333618 367.599884,511.109955 368.430115,511.082550 
	C387.699615,510.446411 406.391998,506.842712 424.382782,499.963165 
	C445.736359,491.797668 463.591675,478.854645 478.444000,461.296051 
	C493.761261,443.187866 502.520691,422.215515 507.633362,399.516846 
	C509.517883,391.150146 509.888519,382.445435 511.029602,373.905579 
	C511.234650,372.370972 511.830414,370.888611 512.622925,369.691040 
	C513.000000,417.594666 513.000000,465.189331 513.000000,513.000000 
	C464.312653,513.000000 415.624969,513.000000 366.468658,513.000000 
z"/>
<path fill="#000000" opacity="1.000000" stroke="none" 
	d="
M48.961571,162.677704 
	C48.944435,142.030319 51.087940,122.222137 59.010387,103.416267 
	C66.047462,86.712036 77.682632,73.858955 93.044556,64.573433 
	C106.491737,56.445286 121.365799,52.232082 137.028168,51.019447 
	C147.357742,50.219696 157.701813,49.165482 168.046646,49.077221 
	C226.796051,48.575993 285.549835,47.922787 344.297272,48.236401 
	C363.130005,48.336937 382.218994,49.275879 400.469482,55.176750 
	C430.553528,64.903732 450.348450,84.975723 458.808075,115.422600 
	C461.652100,125.658287 463.155762,136.440079 463.866852,147.066315 
	C468.269287,212.853653 465.533051,278.739441 465.717224,344.579102 
	C465.774292,364.974152 464.385040,385.583435 457.116241,405.268250 
	C449.960632,424.646454 437.620239,439.468933 420.064087,449.939209 
	C406.987793,457.737823 392.540070,461.665405 377.433990,462.953674 
	C366.615234,463.876312 355.761536,464.833984 344.916199,464.926086 
	C285.671265,465.429321 226.420761,466.146667 167.179581,465.731506 
	C147.440308,465.593201 127.495461,464.139862 108.506271,457.064819 
	C87.832031,449.362000 72.315407,435.832306 62.056160,416.519714 
	C55.654648,404.469177 52.126484,391.343353 51.037128,377.695679 
	C50.173134,366.871429 49.361404,356.027496 49.056702,345.177429 
	C48.497387,325.260864 48.119507,305.334167 48.041927,285.410187 
	C47.890739,246.581512 47.985554,207.751831 48.039501,168.922638 
	C48.042175,166.998795 48.624187,165.075775 48.961571,162.677704 
M382.996307,217.670776 
	C381.329681,213.159668 379.957794,208.512436 377.947662,204.159958 
	C366.626495,179.646469 350.003082,159.847702 326.954987,145.282120 
	C306.242340,132.192474 283.639801,126.127831 259.534912,125.152000 
	C252.073471,124.849937 244.536041,126.293327 237.040009,127.007088 
	C224.873810,128.165512 213.447861,131.992050 202.401794,136.993332 
	C181.637009,146.394943 164.514862,160.372498 150.901611,178.630325 
	C142.164612,190.348190 135.182510,203.144302 131.203171,217.143219 
	C126.524620,233.601913 124.004532,250.336914 125.746498,267.786926 
	C127.327545,283.625000 130.876404,298.715027 137.608932,312.950958 
	C148.645126,336.286896 165.132935,354.842163 187.100555,368.766663 
	C207.500351,381.697449 229.834732,387.625061 253.549103,388.830994 
	C261.328949,389.226593 269.210693,387.694244 277.041534,386.995209 
	C289.064209,385.921936 300.377197,382.146912 311.240570,377.199432 
	C331.930145,367.776917 349.309387,354.077576 362.813110,335.666473 
	C371.832428,323.369446 379.003754,310.141449 383.021179,295.321533 
	C387.435669,279.036865 390.794586,262.642059 387.972168,245.664154 
	C386.463196,236.587097 384.668365,227.557556 382.996307,217.670776 
M366.938110,136.456360 
	C369.816956,139.593826 372.199280,143.507812 375.666626,145.724899 
	C386.603882,152.718399 398.374329,153.431244 409.555176,146.637695 
	C420.496399,139.989700 425.266144,129.733673 424.037140,116.756805 
	C422.863831,104.368156 416.241241,95.715149 405.152618,91.241890 
	C393.306244,86.462906 382.024567,88.745308 372.205322,97.276680 
	C362.736237,105.503799 358.619171,121.791267 366.938110,136.456360 
z"/>
<path fill="#FFFFFF" opacity="1.000000" stroke="none" 
	d="
M382.999420,218.088684 
	C384.668365,227.557556 386.463196,236.587097 387.972168,245.664154 
	C390.794586,262.642059 387.435669,279.036865 383.021179,295.321533 
	C379.003754,310.141449 371.832428,323.369446 362.813110,335.666473 
	C349.309387,354.077576 331.930145,367.776917 311.240570,377.199432 
	C300.377197,382.146912 289.064209,385.921936 277.041534,386.995209 
	C269.210693,387.694244 261.328949,389.226593 253.549103,388.830994 
	C229.834732,387.625061 207.500351,381.697449 187.100555,368.766663 
	C165.132935,354.842163 148.645126,336.286896 137.608932,312.950958 
	C130.876404,298.715027 127.327545,283.625000 125.746498,267.786926 
	C124.004532,250.336914 126.524620,233.601913 131.203171,217.143219 
	C135.182510,203.144302 142.164612,190.348190 150.901611,178.630325 
	C164.514862,160.372498 181.637009,146.394943 202.401794,136.993332 
	C213.447861,131.992050 224.873810,128.165512 237.040009,127.007088 
	C244.536041,126.293327 252.073471,124.849937 259.534912,125.152000 
	C283.639801,126.127831 306.242340,132.192474 326.954987,145.282120 
	C350.003082,159.847702 366.626495,179.646469 377.947662,204.159958 
	C379.957794,208.512436 381.329681,213.159668 382.999420,218.088684 
M197.477142,196.976624 
	C186.151276,207.771713 179.020035,220.933350 174.923706,235.968079 
	C171.189575,249.673431 171.055664,263.372955 174.556213,277.017334 
	C178.798950,293.554657 187.090607,307.731812 199.796204,319.408295 
	C215.260864,333.620361 233.600037,340.789093 254.231155,341.867065 
	C268.535645,342.614502 282.128784,339.038239 295.035828,332.583740 
	C311.500488,324.350189 324.149567,312.034424 332.325745,295.884918 
	C339.937622,280.850098 343.556000,264.741455 341.233063,247.381165 
	C339.722748,236.094025 336.561615,225.500259 331.105621,215.883957 
	C321.998840,199.833038 309.056305,187.554291 291.874969,179.880600 
	C276.264832,172.908691 260.051941,170.122543 243.374893,173.185715 
	C226.106384,176.357544 210.392975,183.418686 197.477142,196.976624 
z"/>
<path fill="#FFFFFF" opacity="1.000000" stroke="none" 
	d="
M366.673523,136.183929 
	C358.619171,121.791267 362.736237,105.503799 372.205322,97.276680 
	C382.024567,88.745308 393.306244,86.462906 405.152618,91.241890 
	C416.241241,95.715149 422.863831,104.368156 424.037140,116.756805 
	C425.266144,129.733673 420.496399,139.989700 409.555176,146.637695 
	C398.374329,153.431244 386.603882,152.718399 375.666626,145.724899 
	C372.199280,143.507812 369.816956,139.593826 366.673523,136.183929 
z"/>
<path fill="#000000" opacity="1.000000" stroke="none" 
	d="
M197.728577,196.726044 
	C210.392975,183.418686 226.106384,176.357544 243.374893,173.185715 
	C260.051941,170.122543 276.264832,172.908691 291.874969,179.880600 
	C309.056305,187.554291 321.998840,199.833038 331.105621,215.883957 
	C336.561615,225.500259 339.722748,236.094025 341.233063,247.381165 
	C343.556000,264.741455 339.937622,280.850098 332.325745,295.884918 
	C324.149567,312.034424 311.500488,324.350189 295.035828,332.583740 
	C282.128784,339.038239 268.535645,342.614502 254.231155,341.867065 
	C233.600037,340.789093 215.260864,333.620361 199.796204,319.408295 
	C187.090607,307.731812 178.798950,293.554657 174.556213,277.017334 
	C171.055664,263.372955 171.189575,249.673431 174.923706,235.968079 
	C179.020035,220.933350 186.151276,207.771713 197.728577,196.726044 
z"/>
</svg>