<svg version="1.1" id="Layer_1" xmlns="http://www.w3.org/2000/svg" xmlns:xlink="http://www.w3.org/1999/xlink" x="0px" y="0px"
	 width="100%" viewBox="0 0 512 512" enable-background="new 0 0 512 512" xml:space="preserve">
<path fill="#FFFFFF" opacity="1.000000" stroke="none" 
	d="
M1.000000,490.000000 
	C1.000000,335.975922 1.000000,181.951843 1.318941,27.757309 
	C1.901337,27.389837 2.313427,27.246578 2.406905,26.988096 
	C6.815206,14.798412 14.896462,6.454257 27.524988,2.774641 
	C27.829809,2.685824 27.848080,1.613567 28.000000,1.000000 
	C181.024078,1.000000 334.048157,1.000000 487.234802,1.313727 
	C498.639099,6.772531 507.705872,14.076790 511.905090,26.245523 
	C511.918671,26.284933 512.619934,26.087061 513.000000,26.000004 
	C513.000000,179.024078 513.000000,332.048157 512.684692,485.243347 
	C512.233948,485.510254 512.028687,485.576172 511.973145,485.706116 
	C506.287933,499.001495 496.392456,507.403259 482.489410,511.221375 
	C482.186310,511.304626 482.156982,512.384827 482.000000,513.000000 
	C328.975922,513.000000 175.951843,513.000000 22.764290,512.691650 
	C13.009223,507.566132 5.404570,500.963867 2.474429,490.108765 
	C2.431931,489.951355 1.510968,490.031006 1.000000,490.000000 
M439.010559,415.500000 
	C438.773621,377.777863 437.857208,340.042145 438.608917,302.339722 
	C438.945129,285.478302 437.722992,269.078217 433.931549,252.811462 
	C431.007080,240.264130 425.787567,228.606857 417.244598,218.825180 
	C402.489136,201.930313 382.545746,195.859497 361.249268,194.235748 
	C348.676300,193.277115 335.920135,193.029236 323.279999,195.883774 
	C305.084473,199.992889 288.484344,206.888626 275.194550,220.368073 
	C271.681061,223.931686 268.625671,227.946991 264.420532,232.850281 
	C264.420532,220.234436 264.420532,208.766144 264.420532,197.327515 
	C241.405045,197.327515 219.211349,197.327515 197.301147,197.327515 
	C197.301147,278.096710 197.301147,358.493439 197.301147,438.681671 
	C221.386734,438.681671 245.125504,438.681671 269.000488,438.681671 
	C269.000488,399.204468 269.104584,360.055542 268.938293,320.907745 
	C268.887146,308.858582 270.535004,297.080414 275.208923,286.118073 
	C280.066040,274.726074 287.889679,265.768188 299.986115,260.841644 
	C308.945190,257.192871 318.072662,256.568909 327.388702,257.069611 
	C338.281403,257.655029 347.318817,262.164825 353.996002,271.053986 
	C363.239624,283.359680 366.772034,297.595734 366.890045,312.538971 
	C367.208496,352.862885 366.999359,393.190948 366.999542,433.517365 
	C366.999542,435.281433 366.999512,437.045532 366.999512,438.720459 
	C391.321228,438.720459 415.058258,438.720459 439.010529,438.720459 
	C439.010529,431.121552 439.010529,423.810760 439.010559,415.500000 
M74.989433,319.500000 
	C74.989433,359.243225 74.989433,398.986481 74.989433,438.769348 
	C99.232819,438.769348 122.960022,438.769348 146.657837,438.769348 
	C146.657837,358.036072 146.657837,277.544495 146.657837,197.287964 
	C122.586777,197.287964 98.859192,197.287964 74.989433,197.287964 
	C74.989433,237.913681 74.989433,278.206848 74.989433,319.500000 
M141.401855,143.971481 
	C150.409653,135.242401 155.685699,124.477249 155.800934,112.092316 
	C155.922836,98.989525 150.885788,88.011055 141.292038,78.133728 
	C124.453041,60.797012 94.467758,62.338100 78.693932,79.024651 
	C66.927452,91.471970 62.695583,106.275452 67.650673,123.460747 
	C73.417328,143.460709 91.209839,155.090668 109.220322,155.815979 
	C120.985794,156.289780 131.970551,152.746338 141.401855,143.971481 
z"/>
<path fill="#000000" opacity="1.000000" stroke="none" 
	d="
M482.468628,513.000000 
	C482.156982,512.384827 482.186310,511.304626 482.489410,511.221375 
	C496.392456,507.403259 506.287933,499.001495 511.973145,485.706116 
	C512.028687,485.576172 512.233948,485.510254 512.684692,485.707214 
	C513.000000,494.931549 513.000000,503.863129 513.000000,513.000000 
	C502.980042,513.000000 492.958679,513.000000 482.468628,513.000000 
z"/>
<path fill="#000000" opacity="1.000000" stroke="none" 
	d="
M27.531338,1.000000 
	C27.848080,1.613567 27.829809,2.685824 27.524988,2.774641 
	C14.896462,6.454257 6.815206,14.798412 2.406905,26.988096 
	C2.313427,27.246578 1.901337,27.389837 1.318941,27.293425 
	C1.000000,18.405525 1.000000,9.811052 1.000000,1.000000 
	C9.686362,1.000000 18.374519,1.000000 27.531338,1.000000 
z"/>
<path fill="#000000" opacity="1.000000" stroke="none" 
	d="
M513.000000,25.531322 
	C512.619934,26.087061 511.918671,26.284933 511.905090,26.245523 
	C507.705872,14.076790 498.639099,6.772531 487.698669,1.313727 
	C496.259705,1.000000 504.519409,1.000000 513.000000,1.000000 
	C513.000000,9.019533 513.000000,17.041086 513.000000,25.531322 
z"/>
<path fill="#000000" opacity="1.000000" stroke="none" 
	d="
M1.000000,490.468750 
	C1.510968,490.031006 2.431931,489.951355 2.474429,490.108765 
	C5.404570,500.963867 13.009223,507.566132 22.300407,512.691650 
	C15.070397,513.000000 8.140795,513.000000 1.000000,513.000000 
	C1.000000,505.647156 1.000000,498.292328 1.000000,490.468750 
z"/>
<path fill="#000000" opacity="1.000000" stroke="none" 
	d="
M439.010559,416.000000 
	C439.010529,423.810760 439.010529,431.121552 439.010529,438.720459 
	C415.058258,438.720459 391.321228,438.720459 366.999512,438.720459 
	C366.999512,437.045532 366.999542,435.281433 366.999542,433.517365 
	C366.999359,393.190948 367.208496,352.862885 366.890045,312.538971 
	C366.772034,297.595734 363.239624,283.359680 353.996002,271.053986 
	C347.318817,262.164825 338.281403,257.655029 327.388702,257.069611 
	C318.072662,256.568909 308.945190,257.192871 299.986115,260.841644 
	C287.889679,265.768188 280.066040,274.726074 275.208923,286.118073 
	C270.535004,297.080414 268.887146,308.858582 268.938293,320.907745 
	C269.104584,360.055542 269.000488,399.204468 269.000488,438.681671 
	C245.125504,438.681671 221.386734,438.681671 197.301147,438.681671 
	C197.301147,358.493439 197.301147,278.096710 197.301147,197.327515 
	C219.211349,197.327515 241.405045,197.327515 264.420532,197.327515 
	C264.420532,208.766144 264.420532,220.234436 264.420532,232.850281 
	C268.625671,227.946991 271.681061,223.931686 275.194550,220.368073 
	C288.484344,206.888626 305.084473,199.992889 323.279999,195.883774 
	C335.920135,193.029236 348.676300,193.277115 361.249268,194.235748 
	C382.545746,195.859497 402.489136,201.930313 417.244598,218.825180 
	C425.787567,228.606857 431.007080,240.264130 433.931549,252.811462 
	C437.722992,269.078217 438.945129,285.478302 438.608917,302.339722 
	C437.857208,340.042145 438.773621,377.777863 439.010559,416.000000 
z"/>
<path fill="#000000" opacity="1.000000" stroke="none" 
	d="
M74.989433,319.000000 
	C74.989433,278.206848 74.989433,237.913681 74.989433,197.287964 
	C98.859192,197.287964 122.586777,197.287964 146.657837,197.287964 
	C146.657837,277.544495 146.657837,358.036072 146.657837,438.769348 
	C122.960022,438.769348 99.232819,438.769348 74.989433,438.769348 
	C74.989433,398.986481 74.989433,359.243225 74.989433,319.000000 
z"/>
<path fill="#000000" opacity="1.000000" stroke="none" 
	d="
M141.038101,144.019180 
	C131.970551,152.746338 120.985794,156.289780 109.220322,155.815979 
	C91.209839,155.090668 73.417328,143.460709 67.650673,123.460747 
	C62.695583,106.275452 66.927452,91.471970 78.693932,79.024651 
	C94.467758,62.338100 124.453041,60.797012 141.292038,78.133728 
	C150.885788,88.011055 155.922836,98.989525 155.800934,112.092316 
	C155.685699,124.477249 150.409653,135.242401 141.038101,144.019180 
z"/>
</svg>