<?xml version="1.0" encoding="UTF-8"?>
<svg version="1.1" xmlns="http://www.w3.org/2000/svg" width="250" height="250">
<path d="M0 0 C0.93940463 -0.00538554 1.87880926 -0.01077108 2.8466807 -0.01631981 C5.99033321 -0.03061228 9.13356541 -0.02349238 12.27723694 -0.01637268 C14.53274881 -0.02207555 16.78825779 -0.02903949 19.04376221 -0.03717041 C25.16769011 -0.05512576 31.29147492 -0.05392895 37.41542125 -0.04822803 C42.52739323 -0.0451397 47.63933759 -0.05122465 52.75130564 -0.05726677 C65.49994826 -0.07212156 78.24848957 -0.06849191 90.99712599 -0.05640347 C102.06277321 -0.04647117 113.12825322 -0.05941226 124.19387465 -0.08333766 C135.56317522 -0.10773397 146.93237588 -0.1169356 158.30171019 -0.11068493 C164.68189469 -0.10731211 171.06194104 -0.1097522 177.44210625 -0.12693596 C183.44136888 -0.14238839 189.44031192 -0.13846811 195.43956184 -0.11963081 C197.64099186 -0.1159403 199.84244546 -0.1190668 202.04385376 -0.1295166 C205.049869 -0.14269609 208.05482152 -0.13120536 211.06079102 -0.11352539 C212.36644426 -0.1279329 212.36644426 -0.1279329 213.69847435 -0.14263147 C219.47419322 -0.07277281 222.90847257 0.9305809 227.59388733 4.38768005 C230.74465617 8.21782586 230.97166285 11.29558235 230.98156738 16.1746521 C230.98964569 17.17926407 230.98964569 17.17926407 230.99788719 18.20417124 C231.01215841 20.44122936 231.00506548 22.67769505 230.99794006 24.91477966 C231.0036441 26.5215299 231.01060849 28.12827608 231.01873779 29.73501587 C231.03668082 34.09454618 231.03549868 38.45387535 231.02979541 42.8134315 C231.02670518 46.45413747 231.03279417 50.09480471 231.03883415 53.73550516 C231.05288155 62.32491849 231.05131633 70.91423236 231.03993225 79.50364685 C231.02845073 88.36228663 231.04252672 97.22062368 231.06932873 106.07922357 C231.09148629 113.68786944 231.09812298 121.29642028 231.09225231 128.90509611 C231.08888167 133.44813604 231.0913049 137.9909819 231.10850334 142.53399467 C231.12397133 146.80637321 231.12001876 151.07830333 231.1011982 155.35066414 C231.09751188 156.91716552 231.10062209 158.48370011 231.11108398 160.0501709 C231.12429382 162.19187138 231.11274903 164.33208726 231.09509277 166.47372437 C231.09488349 167.67109191 231.09467421 168.86845945 231.09445858 170.10211086 C230.47272961 174.18291566 229.26212376 176.25072616 226.59388733 179.38768005 C221.61329466 182.8503108 217.03118005 182.81560359 211.18777466 182.77536011 C209.77866771 182.78343841 209.77866771 182.78343841 208.34109396 182.79167992 C205.19744145 182.80597239 202.05420925 182.79885249 198.91053772 182.79173279 C196.65502585 182.79743566 194.39951687 182.80439959 192.14401245 182.81253052 C186.02008455 182.83048587 179.89629974 182.82928906 173.77235341 182.82358813 C168.66038143 182.82049981 163.54843707 182.82658476 158.43646902 182.83262688 C145.6878264 182.84748167 132.93928509 182.84385202 120.19064867 182.83176357 C109.12500145 182.82183128 98.05952144 182.83477237 86.99390001 182.85869776 C75.62459944 182.88309407 64.25539878 182.89229571 52.88606447 182.88604504 C46.50587996 182.88267222 40.12583362 182.8851123 33.74566841 182.90229607 C27.74640578 182.9177485 21.74746274 182.91382822 15.74821281 182.89499092 C13.5467828 182.89130041 11.3453292 182.8944269 9.1439209 182.90487671 C6.13790565 182.9180562 3.13295313 182.90656547 0.12698364 182.8888855 C-1.17866961 182.90329301 -1.17866961 182.90329301 -2.51069969 182.91799158 C-8.28641856 182.84813292 -11.72069791 181.8447792 -16.40611267 178.38768005 C-19.55688151 174.55753425 -19.78388819 171.47977776 -19.79379272 166.60070801 C-19.79917826 165.93096669 -19.8045638 165.26122537 -19.81011254 164.57118887 C-19.82438375 162.33413075 -19.81729083 160.09766506 -19.81016541 157.86058044 C-19.81586944 156.25383021 -19.82283383 154.64708403 -19.83096313 153.04034424 C-19.84890617 148.68081392 -19.84772402 144.32148476 -19.84202075 139.96192861 C-19.83893052 136.32122264 -19.84501951 132.6805554 -19.8510595 129.03985494 C-19.86510689 120.45044162 -19.86354168 111.86112775 -19.85215759 103.27171326 C-19.84067607 94.41307347 -19.85475207 85.55473642 -19.88155407 76.69613653 C-19.90371163 69.08749067 -19.91034832 61.47893983 -19.90447766 53.87026399 C-19.90110701 49.32722407 -19.90353024 44.7843782 -19.92072868 40.24136543 C-19.93619667 35.9689869 -19.9322441 31.69705678 -19.91342354 27.42469597 C-19.90973722 25.85819459 -19.91284743 24.29165999 -19.92330933 22.72518921 C-19.93651916 20.58348873 -19.92497437 18.44327285 -19.90731812 16.30163574 C-19.90710883 15.1042682 -19.90689955 13.90690065 -19.90668392 12.67324924 C-19.28495495 8.59244444 -18.0743491 6.52463395 -15.40611267 3.38768005 C-10.42552 -0.07495069 -5.84340539 -0.04024349 0 0 Z M2.59388733 13.38768005 C6.3293853 17.12317802 10.03048182 20.59823568 14.03138733 24.01268005 C14.63974426 24.53338074 15.2481012 25.05408142 15.87489319 25.59056091 C20.62378541 29.62623389 25.48840302 33.49280048 30.41200256 37.31199646 C34.39136666 40.40946545 38.26440078 43.60717381 42.09388733 46.88768005 C46.50961263 50.66961416 51.00303808 54.32039763 55.59388733 57.88768005 C60.74266032 61.88849262 65.74740143 66.02158994 70.69935608 70.26268005 C75.14818682 74.05441957 79.72566172 77.6597764 84.34144592 81.24510193 C89.1106167 84.96647 93.74227631 88.83269554 98.33216858 92.77244568 C101.02054227 95.07725963 103.72953399 97.30451399 106.59388733 99.38768005 C110.6538621 97.70427588 113.70659656 94.87619101 116.96888733 92.01268005 C118.22531506 90.92274098 119.48182785 89.83289996 120.73841858 88.7431488 C121.37859924 88.18546814 122.01877991 87.62778748 122.67835999 87.0532074 C125.65823347 84.46224425 128.65702861 81.89353354 131.65638733 79.32518005 C132.23565979 78.82840759 132.81493225 78.33163513 133.41175842 77.81980896 C137.82473713 74.03778392 142.25885412 70.28131536 146.69960022 66.53196716 C150.67992598 63.16854069 154.64041066 59.78260814 158.59388733 56.38768005 C163.61027309 52.08001104 168.64710837 47.79773431 173.69935608 43.5322113 C178.26562252 39.67355032 182.80499608 35.78412137 187.33924866 31.88792419 C190.30336777 29.34315798 193.27487129 26.80793193 196.26185608 24.2900238 C197.14840881 23.54268982 197.14840881 23.54268982 198.0528717 22.78025818 C199.17421718 21.83630069 200.2965548 20.89352006 201.4200592 19.95213318 C203.92530245 17.84363343 206.27456913 15.70699825 208.59388733 13.38768005 C140.61388733 13.38768005 72.63388733 13.38768005 2.59388733 13.38768005 Z M-7.40611267 22.38768005 C-7.40611267 67.26768005 -7.40611267 112.14768005 -7.40611267 158.38768005 C-2.04941677 153.85231273 -2.04941677 153.85231273 3.01721191 149.08460999 C3.59899704 148.50419952 4.18078217 147.92378906 4.78019714 147.32579041 C5.39088043 146.71151184 6.00156372 146.09723328 6.63075256 145.46434021 C7.29501755 144.80022125 7.95928253 144.13610229 8.64367676 143.45185852 C10.81566002 141.27918446 12.98409012 139.10300133 15.15248108 136.92674255 C16.66683415 135.41052234 18.1814097 133.89452429 19.69619751 132.3787384 C23.66527105 128.40586303 27.63133114 124.42999275 31.59675598 120.45347595 C35.65061295 116.38935451 39.7073337 112.32809384 43.7638092 108.2665863 C51.70996259 100.30973679 59.6529331 92.34971811 67.59388733 84.38768005 C65.03155717 81.12167715 62.63674977 78.42065116 59.34388733 75.88768005 C54.7399956 72.2902521 50.18644557 68.63976248 45.65638733 64.95018005 C44.96126038 64.38492615 44.26613342 63.81967224 43.54994202 63.23728943 C38.85893274 59.421847 34.17755051 55.5947776 29.50013733 51.76268005 C25.18025405 48.23245285 20.84863638 44.71669984 16.51600647 41.20213318 C13.4595925 38.72165001 10.406082 36.2382725 7.37123108 33.73143005 C6.43408264 32.95799255 5.4969342 32.18455505 4.53138733 31.38768005 C3.73603577 30.72768005 2.9406842 30.06768005 2.12123108 29.38768005 C-0.96903347 26.94221568 -4.19933876 24.67823285 -7.40611267 22.38768005 Z M195.42201233 41.05955505 C190.08925479 45.70212759 184.71372252 50.29448394 179.34095764 54.89060974 C177.55553109 56.42054764 175.77352588 57.95438806 173.99232483 59.48924255 C167.70846893 64.89974899 161.3857075 70.24467622 154.94935608 75.47361755 C152.14324323 77.7538751 149.36540918 80.06559418 146.59388733 82.38768005 C150.46507688 91.14252412 159.20724355 98.05657879 165.93714905 104.7118988 C168.7468724 107.50106521 171.47260642 110.29998845 174.03138733 113.32518005 C177.3396137 117.23037961 180.95902226 120.79049174 184.59388733 124.38768005 C188.80265697 128.5528242 192.86445993 132.73728639 196.68763733 137.26268005 C199.92996793 140.87708138 203.42611368 144.24171554 206.88026428 147.65232849 C210.66589675 151.40753428 214.17004834 155.29809459 217.59388733 159.38768005 C217.92388733 159.38768005 218.25388733 159.38768005 218.59388733 159.38768005 C218.59388733 114.17768005 218.59388733 68.96768005 218.59388733 22.38768005 C212.616156 22.38768005 200.15454655 36.93896073 195.42201233 41.05955505 Z M75.16087151 93.57180691 C74.32296168 94.41053388 74.32296168 94.41053388 73.46812439 95.26620483 C72.82589935 95.90423538 72.18367432 96.54226593 71.52198792 97.19963074 C70.81852234 97.90871582 70.11505676 98.6178009 69.39027405 99.34837341 C68.64871063 100.08803848 67.90714722 100.82770355 67.14311218 101.58978271 C64.68167978 104.04749617 62.22754534 106.51236148 59.77357483 108.9775238 C58.07285877 110.67943107 56.37177389 112.38096983 54.67033386 114.08215332 C51.10121902 117.65283493 47.53549823 121.2268606 43.9723053 124.80345154 C39.39260965 129.40014371 34.80635212 133.99021899 30.21777153 138.57804012 C26.7037613 142.09232158 23.19235826 145.60919809 19.6818428 149.12697029 C17.99105938 150.82094774 16.29965913 152.51430974 14.60764694 154.20705986 C12.24880132 156.56806094 9.89327121 158.93231783 7.53871155 161.29759216 C6.83119751 162.00465302 6.12368347 162.71171387 5.39472961 163.44020081 C4.75814423 164.08105118 4.12155884 164.72190155 3.46568298 165.38217163 C2.90783049 165.94169997 2.34997799 166.50122831 1.77522087 167.07771206 C0.48226995 168.21745755 0.48226995 168.21745755 0.59388733 169.38768005 C69.56388733 169.38768005 138.53388733 169.38768005 209.59388733 169.38768005 C204.51085149 162.57279465 204.51085149 162.57279465 198.87904358 156.51268005 C198.0276178 155.6722113 197.17619202 154.83174255 196.29896545 153.96580505 C195.42691467 153.1150238 194.55486389 152.26424255 193.65638733 151.38768005 C188.31911444 146.15739036 183.09867443 140.93164798 178.23622131 135.25486755 C175.50461931 132.14927931 172.54798479 129.27961182 169.59388733 126.38768005 C165.38418736 122.22632324 161.32494462 118.04108038 157.50404358 113.5165863 C154.26023154 109.90129477 150.77082859 106.52458403 147.29872131 103.12962341 C143.82551588 99.71089142 140.6570236 96.17959224 137.59388733 92.38768005 C133.51151995 92.92508176 131.56005057 95.02631067 128.65638733 97.82518005 C124.46594087 101.71229661 120.23488234 105.49091057 115.78138733 109.07518005 C115.25488586 109.52111511 114.7283844 109.96705017 114.18592834 110.42649841 C111.57024812 112.49142233 109.94940195 113.37797159 106.58998108 113.4697113 C102.8652856 112.12454749 100.33592054 110.02482009 97.46888733 107.38768005 C96.33713616 106.38890183 95.20296398 105.39286109 94.06654358 104.3993988 C93.49436096 103.89714783 92.92217834 103.39489685 92.33265686 102.87742615 C89.60618476 100.54143447 86.77529742 98.35736115 83.90638733 96.20018005 C82.93314514 95.46412537 81.95990295 94.72807068 80.95716858 93.9697113 C77.99896229 91.92144391 77.99896229 91.92144391 75.16087151 93.57180691 Z " fill="#FEFEFE" transform="translate(19.406112670898438,33.61231994628906)"/>
</svg>
