<svg version="1.1" id="Layer_1" xmlns="http://www.w3.org/2000/svg" xmlns:xlink="http://www.w3.org/1999/xlink" x="0px" y="0px"
	 width="100%" viewBox="0 0 512 512" enable-background="new 0 0 512 512" xml:space="preserve">
<path fill="#FFFFFF" opacity="1.000000" stroke="none" 
	d="
M513.000000,91.000008 
	C513.000000,201.688675 513.000000,312.377350 512.703491,423.231262 
	C512.128418,423.577362 511.705475,423.693878 511.591858,423.948425 
	C504.913513,438.914856 492.363342,443.027557 477.244019,443.021179 
	C332.593231,442.959961 187.942398,442.995239 43.291599,442.943146 
	C37.870174,442.941193 32.440632,442.429840 27.029482,441.980072 
	C17.179995,441.161469 9.637059,436.725433 4.918173,427.777954 
	C3.976798,425.992981 2.324494,424.582916 1.000000,423.000000 
	C1.000000,312.644653 1.000000,202.289307 1.314572,91.759781 
	C2.681586,89.643417 3.671614,87.664253 4.796736,85.765129 
	C11.421231,74.583473 22.143318,71.089142 34.145664,71.080765 
	C178.744812,70.979851 323.344055,71.002853 467.943237,71.057121 
	C474.362244,71.059525 480.790405,71.546074 487.197693,72.027893 
	C497.030914,72.767326 504.273926,77.583511 509.075958,86.229187 
	C510.059387,87.999741 511.675507,89.418884 513.000000,91.000008 
M430.035522,371.555817 
	C420.895294,362.065491 411.712860,352.615356 402.625427,343.074738 
	C391.044922,330.916748 379.544434,318.682526 368.003174,306.487091 
	C361.876678,300.013367 355.765869,293.524506 349.596405,287.091919 
	C340.405701,277.509186 331.222595,267.917175 321.857849,258.506714 
	C321.052399,257.697357 318.319580,257.512238 317.482910,258.220123 
	C302.683289,270.741364 287.940002,283.333923 273.398499,296.153717 
	C264.595276,303.914642 260.359955,304.384064 250.730453,297.243011 
	C246.866211,294.377350 243.263687,291.160553 239.513275,288.139313 
	C227.810089,278.711487 215.860535,269.568878 204.515182,259.729156 
	C200.837372,256.539459 199.274429,257.017792 196.231903,260.071442 
	C144.475632,312.016724 92.617874,363.860870 40.754211,415.699036 
	C39.879971,416.572815 38.655006,417.095764 37.593704,417.782410 
	C37.896187,418.116882 38.198669,418.451324 38.501152,418.785767 
	C183.846344,418.785767 329.191528,418.785767 474.893127,418.785767 
	C466.179138,409.603058 457.738159,400.712402 449.302216,391.816956 
	C443.055176,385.229706 436.814606,378.636322 430.035522,371.555817 
M54.453747,106.988190 
	C66.424095,116.920311 78.371239,126.880585 90.372498,136.775223 
	C99.203690,144.056244 108.089920,151.270828 116.979576,158.480560 
	C132.727066,171.252151 148.522781,183.964386 164.246521,196.765076 
	C175.542908,205.961441 186.726822,215.295883 198.012329,224.505707 
	C210.298218,234.531891 222.631683,244.499969 234.966949,254.465454 
	C243.585175,261.427979 252.241333,268.343536 261.025055,275.396088 
	C331.500183,215.369766 401.702850,155.575485 472.525146,95.253433 
	C327.793152,95.253433 184.121124,95.253433 39.689743,95.253433 
	C44.834530,99.302101 49.390995,102.887787 54.453747,106.988190 
M23.999880,128.506897 
	C23.999880,218.537170 23.999880,308.567444 23.999880,395.504059 
	C75.693748,345.037811 128.668747,293.320831 181.809830,241.441727 
	C128.858078,198.266266 76.674057,155.716812 23.999880,112.767685 
	C23.999880,118.228386 23.999880,122.869659 23.999880,128.506897 
M462.915985,371.672333 
	C471.743317,381.074799 480.570648,390.477264 489.717102,400.219666 
	C489.717102,303.726318 489.717102,208.070557 489.717102,111.620560 
	C438.884918,154.917236 388.608215,197.740753 338.226501,240.653717 
	C339.370453,242.124542 340.527344,243.899353 341.961395,245.411133 
	C355.534149,259.719208 369.151611,273.984863 382.761017,288.258087 
	C396.485229,302.651703 410.165009,317.088135 423.956970,331.416595 
	C436.743652,344.700684 449.652832,357.866913 462.915985,371.672333 
z"/>
<path fill="#000000" opacity="1.000000" stroke="none" 
	d="
M513.000000,90.531349 
	C511.675507,89.418884 510.059387,87.999741 509.075958,86.229187 
	C504.273926,77.583511 497.030914,72.767326 487.197693,72.027893 
	C480.790405,71.546074 474.362244,71.059525 467.943237,71.057121 
	C323.344055,71.002853 178.744812,70.979851 34.145664,71.080765 
	C22.143318,71.089142 11.421231,74.583473 4.796736,85.765129 
	C3.671614,87.664253 2.681586,89.643417 1.314572,91.292801 
	C1.000000,61.018967 1.000000,31.037930 1.000003,1.058227 
	C171.666672,1.059560 342.333344,1.059560 513.000000,1.059560 
	C513.000000,30.766973 513.000000,60.414829 513.000000,90.531349 
z"/>
<path fill="#000000" opacity="1.000000" stroke="none" 
	d="
M1.000000,423.468658 
	C2.324494,424.582916 3.976798,425.992981 4.918173,427.777954 
	C9.637059,436.725433 17.179995,441.161469 27.029482,441.980072 
	C32.440632,442.429840 37.870174,442.941193 43.291599,442.943146 
	C187.942398,442.995239 332.593231,442.959961 477.244019,443.021179 
	C492.363342,443.027557 504.913513,438.914856 511.591858,423.948425 
	C511.705475,423.693878 512.128418,423.577362 512.703491,423.698242 
	C513.000000,453.647858 513.000000,483.295746 513.000000,512.942078 
	C342.333313,512.940552 171.666656,512.940552 1.000000,512.940552 
	C1.000000,483.233185 1.000000,453.585236 1.000000,423.468658 
z"/>
<path fill="#000000" opacity="1.000000" stroke="none" 
	d="
M430.303345,371.800720 
	C436.814606,378.636322 443.055176,385.229706 449.302216,391.816956 
	C457.738159,400.712402 466.179138,409.603058 474.893127,418.785767 
	C329.191528,418.785767 183.846344,418.785767 38.501152,418.785767 
	C38.198669,418.451324 37.896187,418.116882 37.593704,417.782410 
	C38.655006,417.095764 39.879971,416.572815 40.754211,415.699036 
	C92.617874,363.860870 144.475632,312.016724 196.231903,260.071442 
	C199.274429,257.017792 200.837372,256.539459 204.515182,259.729156 
	C215.860535,269.568878 227.810089,278.711487 239.513275,288.139313 
	C243.263687,291.160553 246.866211,294.377350 250.730453,297.243011 
	C260.359955,304.384064 264.595276,303.914642 273.398499,296.153717 
	C287.940002,283.333923 302.683289,270.741364 317.482910,258.220123 
	C318.319580,257.512238 321.052399,257.697357 321.857849,258.506714 
	C331.222595,267.917175 340.405701,277.509186 349.596405,287.091919 
	C355.765869,293.524506 361.876678,300.013367 368.003174,306.487091 
	C379.544434,318.682526 391.044922,330.916748 402.625427,343.074738 
	C411.712860,352.615356 420.895294,362.065491 430.303345,371.800720 
z"/>
<path fill="#000000" opacity="1.000000" stroke="none" 
	d="
M54.200603,106.730835 
	C49.390995,102.887787 44.834530,99.302101 39.689743,95.253433 
	C184.121124,95.253433 327.793152,95.253433 472.525146,95.253433 
	C401.702850,155.575485 331.500183,215.369766 261.025055,275.396088 
	C252.241333,268.343536 243.585175,261.427979 234.966949,254.465454 
	C222.631683,244.499969 210.298218,234.531891 198.012329,224.505707 
	C186.726822,215.295883 175.542908,205.961441 164.246521,196.765076 
	C148.522781,183.964386 132.727066,171.252151 116.979576,158.480560 
	C108.089920,151.270828 99.203690,144.056244 90.372498,136.775223 
	C78.371239,126.880585 66.424095,116.920311 54.200603,106.730835 
z"/>
<path fill="#000000" opacity="1.000000" stroke="none" 
	d="
M23.999880,128.008911 
	C23.999880,122.869659 23.999880,118.228386 23.999880,112.767685 
	C76.674057,155.716812 128.858078,198.266266 181.809830,241.441727 
	C128.668747,293.320831 75.693748,345.037811 23.999880,395.504059 
	C23.999880,308.567444 23.999880,218.537170 23.999880,128.008911 
z"/>
<path fill="#000000" opacity="1.000000" stroke="none" 
	d="
M462.712036,371.378693 
	C449.652832,357.866913 436.743652,344.700684 423.956970,331.416595 
	C410.165009,317.088135 396.485229,302.651703 382.761017,288.258087 
	C369.151611,273.984863 355.534149,259.719208 341.961395,245.411133 
	C340.527344,243.899353 339.370453,242.124542 338.226501,240.653717 
	C388.608215,197.740753 438.884918,154.917236 489.717102,111.620560 
	C489.717102,208.070557 489.717102,303.726318 489.717102,400.219666 
	C480.570648,390.477264 471.743317,381.074799 462.712036,371.378693 
z"/>
</svg>